<svg width="36" height="36" viewBox="0 0 36 36" fill="none" xmlns="http://www.w3.org/2000/svg">
<circle cx="18" cy="18" r="18" fill="white" fill-opacity="0.4"/>
<mask id="mask0_3529_13009" style="mask-type:alpha" maskUnits="userSpaceOnUse" x="6" y="6" width="24" height="25">
<rect x="6" y="6.07617" width="24" height="24.3038" fill="#D9D9D9"/>
</mask>
<g mask="url(#mask0_3529_13009)">
<path d="M24 30.0762C23.1667 30.0762 22.4583 29.7262 21.875 29.0262C21.2917 28.3262 21 27.4762 21 26.4762C21 26.3362 21.0083 26.191 21.025 26.0406C21.0417 25.891 21.0667 25.7562 21.1 25.6362L14.05 20.7162C13.7667 21.0162 13.45 21.251 13.1 21.4206C12.75 21.591 12.3833 21.6762 12 21.6762C11.1667 21.6762 10.4583 21.3262 9.875 20.6262C9.29167 19.9262 9 19.0762 9 18.0762C9 17.0762 9.29167 16.2262 9.875 15.5262C10.4583 14.8262 11.1667 14.4762 12 14.4762C12.3833 14.4762 12.75 14.561 13.1 14.7306C13.45 14.901 13.7667 15.1362 14.05 15.4362L21.1 10.5162C21.0667 10.3962 21.0417 10.2614 21.025 10.1118C21.0083 9.96137 21 9.81617 21 9.67617C21 8.67617 21.2917 7.82617 21.875 7.12617C22.4583 6.42617 23.1667 6.07617 24 6.07617C24.8333 6.07617 25.5417 6.42617 26.125 7.12617C26.7083 7.82617 27 8.67617 27 9.67617C27 10.6762 26.7083 11.5262 26.125 12.2262C25.5417 12.9262 24.8333 13.2762 24 13.2762C23.6167 13.2762 23.25 13.191 22.9 13.0206C22.55 12.851 22.2333 12.6162 21.95 12.3162L14.9 17.2362C14.9333 17.3562 14.9583 17.491 14.975 17.6406C14.9917 17.791 15 17.9362 15 18.0762C15 18.2162 14.9917 18.361 14.975 18.5106C14.9583 18.661 14.9333 18.7962 14.9 18.9162L21.95 23.8362C22.2333 23.5362 22.55 23.301 22.9 23.1306C23.25 22.961 23.6167 22.8762 24 22.8762C24.8333 22.8762 25.5417 23.2262 26.125 23.9262C26.7083 24.6262 27 25.4762 27 26.4762C27 27.4762 26.7083 28.3262 26.125 29.0262C25.5417 29.7262 24.8333 30.0762 24 30.0762Z" fill="white"/>
</g>
</svg>
